<svg width="200" height="45" viewBox="0 0 200 45" fill="none" xmlns="http://www.w3.org/2000/svg">
<g clip-path="url(#clip0_6706_3387)">
<path d="M61.7397 30.52C60.4621 30.52 59.3421 30.296 58.3797 29.848C57.4173 29.4 56.6623 28.7612 56.1148 27.9316C55.5838 27.102 55.31 26.1147 55.2935 24.9698H58.081C58.0976 25.899 58.4212 26.6872 59.0517 27.3343C59.6822 27.9814 60.5699 28.3049 61.7148 28.3049C62.7269 28.3049 63.5151 28.0643 64.0792 27.5832C64.66 27.0854 64.9503 26.4549 64.9503 25.6916C64.9503 25.0783 64.8093 24.5805 64.5272 24.1983C64.2618 23.8166 63.8884 23.5014 63.4072 23.2525C62.9421 23.0036 62.4028 22.7796 61.7895 22.5805C61.1761 22.3814 60.529 22.1657 59.8481 21.9334C58.5041 21.4854 57.492 20.9046 56.8117 20.1912C56.148 19.4777 55.8161 18.5402 55.8161 17.3787C55.7989 16.3997 56.0229 15.5452 56.4881 14.8152C56.9693 14.0851 57.633 13.5209 58.4792 13.1227C59.3421 12.7079 60.3459 12.5005 61.4908 12.5005C62.6191 12.5005 63.6064 12.7079 64.4526 13.1227C65.3154 13.5375 65.9874 14.1183 66.4686 14.8649C66.9492 15.595 67.198 16.4495 67.2152 17.4285H64.4277C64.4277 16.9805 64.3115 16.5574 64.0792 16.1592C63.8358 15.7344 63.4836 15.3822 63.0588 15.1387C62.6108 14.8732 62.0632 14.7405 61.4161 14.7405C60.5865 14.7239 59.8979 14.9313 59.3503 15.3627C58.8194 15.7935 58.5539 16.3909 58.5539 17.1547C58.5539 17.835 58.753 18.3577 59.1512 18.7227C59.5495 19.0877 60.097 19.3947 60.7939 19.6436C61.4908 19.8759 62.2872 20.1497 63.1832 20.4649C64.0461 20.747 64.8176 21.0872 65.4979 21.4854C66.1594 21.8651 66.7155 22.4041 67.1157 23.0534C67.5305 23.7005 67.7379 24.5218 67.7379 25.5174C67.7379 26.3968 67.5139 27.2181 67.0659 27.9814C66.6179 28.728 65.9459 29.342 65.0499 29.8232C64.1533 30.2877 63.0499 30.52 61.7397 30.52ZM76.297 30.52C75.0858 30.52 74.0072 30.2546 73.0615 29.7236C72.1385 29.1825 71.3811 28.3993 70.8712 27.4587C70.3403 26.4963 70.0748 25.3763 70.0748 24.0987C70.0748 22.8045 70.332 21.6679 70.8463 20.6889C71.3507 19.7379 72.1088 18.9453 73.0366 18.3992C73.9823 17.8516 75.0775 17.5778 76.3219 17.5778C77.5332 17.5778 78.5868 17.8516 79.4828 18.3992C80.3601 18.9109 81.0825 19.6505 81.5735 20.5396C82.0712 21.4356 82.3201 22.4229 82.3201 23.5014C82.3201 23.6673 82.3118 23.8498 82.2952 24.0489C82.2952 24.2315 82.2869 24.4389 82.2703 24.6712H72.6632C72.7462 25.8658 73.1361 26.7784 73.833 27.4089C74.5124 28.0097 75.3901 28.3378 76.297 28.3298C77.0437 28.3298 77.6659 28.1639 78.1637 27.832C78.6735 27.4895 79.0716 27.0049 79.3086 26.4383H81.9468C81.6149 27.5997 80.9512 28.5704 79.9557 29.3503C78.9773 30.1301 77.7578 30.52 76.297 30.52ZM76.297 19.7432C75.4489 19.7325 74.6229 20.0137 73.9575 20.5396C73.2772 21.054 72.8624 21.8338 72.713 22.8792H79.6819C79.6321 21.9168 79.292 21.1535 78.6615 20.5894C78.0303 20.0252 77.2422 19.7432 76.297 19.7432ZM90.9068 30.52C89.6955 30.52 88.6084 30.2463 87.6455 29.6987C86.7081 29.1597 85.9341 28.3771 85.4055 27.4338C84.8751 26.4555 84.6099 25.3272 84.6099 24.0489C84.6099 22.7719 84.8751 21.6519 85.4055 20.6889C85.929 19.7354 86.7037 18.9435 87.6455 18.3992C88.6078 17.8516 89.6949 17.5778 90.9068 17.5778C92.4327 17.5778 93.7104 17.976 94.7397 18.7725C95.785 19.5689 96.457 20.6475 96.7557 22.008H93.993C93.8271 21.3277 93.4621 20.7968 92.8979 20.4152C92.3332 20.0335 91.6695 19.8427 90.9068 19.8427C90.2597 19.8427 89.6623 20.0086 89.1148 20.3405C88.5666 20.6557 88.1269 21.1286 87.7957 21.7592C87.4638 22.3731 87.2979 23.1363 87.2979 24.0489C87.2979 24.9615 87.4638 25.7331 87.7957 26.3636C88.1269 26.9775 88.5666 27.4504 89.1148 27.7823C89.6629 28.1141 90.2603 28.28 90.9068 28.28C91.6695 28.28 92.3332 28.0892 92.8979 27.7076C93.4615 27.3254 93.8265 26.7861 93.993 26.0898H96.7557C96.473 27.4172 95.8093 28.4875 94.7646 29.3005C93.7198 30.1135 92.4339 30.52 90.9068 30.52ZM104.171 30.52C102.677 30.52 101.499 30.0555 100.637 29.1263C99.7903 28.1971 99.3672 26.8116 99.3672 24.9698V17.8765H102.005V24.696C102.005 27.0854 102.984 28.28 104.942 28.28C105.922 28.28 106.727 27.9316 107.357 27.2347C107.986 26.5378 108.302 25.5423 108.302 24.248V17.8765H110.941V30.2214H108.601L108.402 28.056C108.026 28.8131 107.438 29.4443 106.709 29.8729C105.98 30.3043 105.134 30.52 104.171 30.52ZM114.297 30.2214V17.8765H116.661L116.885 20.216C117.296 19.4251 117.916 18.7621 118.677 18.2996C119.457 17.8184 120.395 17.5778 121.49 17.5778V20.3405H120.768C120.038 20.3405 119.383 20.4649 118.802 20.7138C118.238 20.9461 117.781 21.3526 117.433 21.9334C117.101 22.4975 116.935 23.2857 116.935 24.2978V30.2214H114.297ZM129.186 30.52C127.975 30.52 126.896 30.2546 125.95 29.7236C125.027 29.1825 124.27 28.3993 123.76 27.4587C123.229 26.4963 122.964 25.3763 122.964 24.0987C122.964 22.8045 123.221 21.6679 123.735 20.6889C124.24 19.7379 124.998 18.9453 125.925 18.3992C126.871 17.8516 127.966 17.5778 129.211 17.5778C130.422 17.5778 131.476 17.8516 132.372 18.3992C133.249 18.9109 133.971 19.6505 134.462 20.5396C134.96 21.4356 135.209 22.4229 135.209 23.5014C135.209 23.6673 135.201 23.8498 135.184 24.0489C135.184 24.2315 135.176 24.4389 135.159 24.6712H125.552C125.635 25.8658 126.025 26.7784 126.722 27.4089C127.401 28.0097 128.279 28.3378 129.186 28.3298C129.933 28.3298 130.555 28.1639 131.053 27.832C131.562 27.4895 131.96 27.0049 132.197 26.4383H134.836C134.504 27.5997 133.84 28.5704 132.845 29.3503C131.866 30.1301 130.647 30.52 129.186 30.52ZM129.186 19.7432C128.338 19.7325 127.512 20.0137 126.846 20.5396C126.166 21.054 125.751 21.8338 125.602 22.8792H132.571C132.521 21.9168 132.181 21.1535 131.55 20.5894C130.92 20.0252 130.132 19.7432 129.186 19.7432ZM138.046 30.2214V12.7992H143.696C145.737 12.7992 147.413 13.1559 148.723 13.8694C150.05 14.5829 151.029 15.595 151.661 16.9058C152.308 18.2 152.631 19.7432 152.631 21.5352C152.631 23.3106 152.308 24.8537 151.661 26.1645C151.029 27.4587 150.05 28.4626 148.723 29.176C147.413 29.8729 145.737 30.2214 143.696 30.2214H138.046ZM140.685 27.9814H143.596C145.172 27.9814 146.417 27.7242 147.33 27.2098C148.259 26.6949 148.923 25.9565 149.321 24.9947C149.736 24.0323 149.943 22.8792 149.943 21.5352C149.943 20.1912 149.736 19.0297 149.321 18.0507C148.941 17.0932 148.236 16.3002 147.33 15.8107C146.417 15.2797 145.173 15.0143 143.596 15.0143H140.685V27.9814ZM155.546 30.2214V12.7992H158.184L166.92 25.9156V12.7992H169.558V30.2214H166.92L158.184 17.1049V30.2214H155.546ZM171.974 30.2214L178.396 12.7992H181.283L187.654 30.2214H184.867L183.373 25.9654H176.255L174.762 30.2214H171.974ZM177.002 23.8747H182.627L179.814 15.9352L177.002 23.8747Z" fill="#177580"/>
<mask id="mask0_6706_3387" style="mask-type:luminance" maskUnits="userSpaceOnUse" x="0" y="0" width="45" height="45">
<path d="M0 0H44.4444V44.4444H0V0Z" fill="white"/>
</mask>
<g mask="url(#mask0_6706_3387)">
<path d="M38.614 8.66397C38.614 9.17686 38.5856 9.69242 38.6202 10.2044C38.6878 11.2329 38.9313 11.7297 40.1776 12.2231C40.7207 12.44 41.2798 12.6124 41.8069 12.856C42.5998 13.224 43.0718 14.0604 42.9767 14.8933C42.9429 15.1804 42.8433 15.4675 42.7331 15.7395C42.5171 16.28 42.2576 16.8071 42.0451 17.3484C41.9491 17.5884 41.9091 17.8542 41.8691 18.1129C41.7856 18.672 42.0504 19.1102 42.39 19.512C42.5349 19.6809 42.7082 19.8293 42.8682 19.9831C43.214 20.3209 43.5811 20.6355 43.8993 20.9929C44.6113 21.7955 44.6336 22.8577 43.9393 23.6791C43.5909 24.0897 43.1767 24.4409 42.7971 24.824C42.5838 25.0373 42.3713 25.2506 42.1749 25.4782C41.582 26.1697 41.5669 26.9324 41.9278 27.7253C42.1411 28.192 42.3749 28.6489 42.5784 29.1209C42.8007 29.6329 42.8967 30.1546 42.7233 30.7138C42.5447 31.288 42.2078 31.72 41.662 31.9671C41.1589 32.1955 40.638 32.3742 40.1349 32.6C39.7957 32.749 39.4662 32.9191 39.1482 33.1093C38.5953 33.4426 38.4229 33.992 38.3944 34.5911C38.3767 34.9858 38.438 35.3875 38.438 35.7822C38.438 36.1591 38.4469 36.5449 38.3882 36.9155C38.3217 37.3752 38.0965 37.7971 37.7517 38.1082C37.407 38.4194 36.9643 38.6003 36.5002 38.6195C35.9047 38.6462 35.3064 38.6071 34.7109 38.6133C34.4016 38.6133 34.0949 38.634 33.7909 38.6755C33.014 38.7795 32.5784 39.3049 32.2976 39.9742C32.0824 40.4871 31.9153 41.0204 31.7144 41.5422C31.4211 42.3075 30.8753 42.7866 30.0673 42.9591C29.6904 43.0391 29.3233 42.9804 28.9722 42.8391C28.5367 42.6667 28.1054 42.4835 27.6789 42.2898C27.2469 42.0853 26.8033 41.9164 26.3278 41.8666C25.5447 41.7866 25.014 42.2373 24.526 42.7706C24.2389 43.0826 23.9642 43.4071 23.6656 43.7066C23.3633 44.0089 23.0202 44.2622 22.598 44.3671C21.8851 44.5457 21.2433 44.4035 20.7038 43.9004C20.3345 43.5527 19.9773 43.1925 19.6327 42.8204C19.3056 42.472 18.9633 42.1475 18.55 41.9031C18.1918 41.6933 17.8122 41.6222 17.4211 41.7342C17.0478 41.8391 16.6798 41.9742 16.3251 42.1351C15.7571 42.3911 15.2087 42.6942 14.5882 42.7991C13.7856 42.9342 12.91 42.5209 12.5393 41.7955C12.2807 41.2889 12.0771 40.7555 11.8727 40.2213C11.7064 39.7858 11.5242 39.3689 11.222 39.008C11.0812 38.8356 10.905 38.6954 10.7053 38.597C10.5056 38.4985 10.2872 38.4441 10.0647 38.4373C9.61756 38.4124 9.16689 38.4524 8.71978 38.44C8.26023 38.4275 7.782 38.4586 7.34378 38.3475C6.37845 38.104 5.81045 37.3138 5.79178 36.2764C5.78289 35.7635 5.838 35.248 5.82911 34.736C5.82081 34.3583 5.78576 33.9816 5.72423 33.6089C5.61934 32.9733 5.14645 32.64 4.61934 32.3902C4.18378 32.1857 3.71889 32.0533 3.27445 31.8711C2.99911 31.7637 2.73176 31.6369 2.47445 31.4915C1.62111 30.9884 1.25311 30.0009 1.58645 29.0649C1.76511 28.5653 2.006 28.0871 2.19445 27.5893C2.342 27.1982 2.494 26.7964 2.574 26.3857C2.694 25.7626 2.38289 25.2657 1.97845 24.824C1.81845 24.648 1.62645 24.5031 1.45667 24.336C1.12334 24.0062 0.768669 23.6942 0.472669 23.336C-0.177997 22.552 -0.156664 21.4871 0.522447 20.728C0.867336 20.3386 1.26022 19.9964 1.63 19.6293C1.84867 19.4124 2.07089 19.2 2.27445 18.9653C2.86734 18.28 2.87 17.5209 2.52156 16.7306C2.28334 16.1902 2.02111 15.6622 1.79623 15.1155C1.37045 14.0817 1.80511 12.8409 2.92867 12.3777C3.342 12.2089 3.75889 12.0355 4.17845 11.8809C4.61934 11.7209 5.04511 11.5351 5.41845 11.2391C5.85934 10.8897 6.02911 10.4177 6.05134 9.88975C6.06645 9.4853 6.01045 9.08086 6.01045 8.67642C6.01045 8.29064 6.00778 7.90486 6.06023 7.5253C6.12404 7.07263 6.34101 6.65548 6.675 6.34333C7.00898 6.03117 7.43983 5.84286 7.89578 5.80975C8.49756 5.77242 9.102 5.81508 9.70378 5.80975C10.025 5.80619 10.345 5.78753 10.6638 5.75375C11.3118 5.68886 11.7153 5.27464 11.9998 4.73775C12.1598 4.43553 12.2522 4.09597 12.3856 3.77775C12.5669 3.33953 12.7242 2.88886 12.9464 2.47197C13.3784 1.65419 14.422 1.23464 15.2913 1.53686C15.8593 1.73419 16.3989 2.01242 16.9607 2.22842C17.3189 2.36442 17.686 2.49419 18.0629 2.55286C18.8522 2.67908 19.3953 2.21864 19.8922 1.68797C20.2593 1.29686 20.6202 0.891527 21.0122 0.523527C21.7429 -0.169806 22.9953 -0.228473 23.8167 0.589305C24.1678 0.937749 24.5047 1.29953 24.8504 1.65419C25.0256 1.83286 25.2016 2.01242 25.3873 2.17864C26.1304 2.84886 26.9482 2.86753 27.8184 2.45953C28.318 2.22486 28.814 1.99019 29.3242 1.77508C30.3509 1.33953 31.5518 1.80886 31.9864 2.77153C32.1313 3.09242 32.2762 3.41331 32.4087 3.74042C32.5447 4.07997 32.6469 4.43197 32.7944 4.76531C33.1767 5.61775 33.8256 6.06842 34.782 6.03464C35.3838 6.01597 35.9882 5.98486 36.59 5.99731C37.5189 6.01242 38.3358 6.63642 38.5544 7.50397C38.6478 7.87375 38.6504 8.26575 38.694 8.64619C38.6673 8.64619 38.6407 8.64708 38.614 8.64886V8.66397ZM38.2247 22.2773C38.1722 21.5271 38.1536 20.7742 38.0584 20.0302C37.8451 18.3822 37.3491 16.8195 36.63 15.3164C35.881 13.7482 34.8816 12.3125 33.6709 11.0657C33.5873 10.9795 33.502 10.8871 33.406 10.816C33.2727 10.7137 33.1802 10.7484 33.1464 10.912C33.0816 11.2391 33.0327 11.5697 32.9704 11.896C32.7478 13.0618 32.4448 14.211 32.0638 15.3351C31.2611 17.7395 29.9873 19.8391 28.126 21.5733C27.9633 21.728 27.7936 21.8755 27.6362 22.0364C27.4513 22.2249 27.4602 22.3235 27.6487 22.5057C27.8703 22.7215 28.0896 22.9386 28.3064 23.1573C29.1391 23.9889 29.8718 24.9148 30.4896 25.9164C31.5731 27.6853 32.2362 29.6275 32.7544 31.6186C32.9091 32.2142 33.0042 32.8222 33.1402 33.424C33.2087 33.72 33.2851 33.7351 33.4984 33.5324C34.9296 32.1458 36.0131 30.5191 36.8336 28.7138C37.7651 26.6693 38.1936 24.5244 38.222 22.2835L38.2247 22.2773ZM11.1607 33.7351C11.2158 33.6151 11.2807 33.5262 11.3029 33.4275C11.3704 33.1217 11.4193 32.8097 11.4807 32.5013C11.774 30.9982 12.2371 29.5466 12.7927 28.1209C13.4817 26.3566 14.51 24.7446 15.8193 23.376C16.1127 23.0675 16.4149 22.7715 16.7198 22.4782C16.8593 22.3422 16.8709 22.2222 16.7287 22.0862C16.5873 21.9466 16.4487 21.8053 16.3038 21.6658C15.0976 20.5182 14.0789 19.2249 13.3296 17.7333C12.4869 16.0666 11.966 14.2889 11.5802 12.4675C11.4753 11.9795 11.4104 11.4826 11.3118 10.992C11.2584 10.7297 11.1784 10.7137 10.9873 10.8933C10.1429 11.6737 9.44511 12.5786 8.81845 13.5422C7.26023 15.9369 6.40245 18.5609 6.27622 21.416C6.214 22.8266 6.30111 24.2284 6.59978 25.6142C7.09754 27.9132 8.10446 30.0713 9.54645 31.9298C10.0332 32.5777 10.5744 33.1829 11.1642 33.7386L11.1607 33.7351ZM22.2273 11.0009H17.3491C17.0167 11.0009 16.9544 11.0844 17.0104 11.4151C17.1527 12.2453 17.39 13.0506 17.686 13.8382C17.8709 14.3315 17.8833 14.3351 18.4051 14.3351H25.7109C25.9082 14.3351 26.1091 14.3191 26.3064 14.3191C26.4664 14.3191 26.5562 14.2391 26.6087 14.1004C26.7162 13.8133 26.846 13.5289 26.9322 13.2355C27.1056 12.64 27.2691 12.0382 27.414 11.4364C27.5002 11.0782 27.4229 11.0071 27.0469 11.0071H22.2273V11.0009ZM22.2184 33.4391V33.4329H26.9971C27.4664 33.4329 27.5002 33.3778 27.4051 32.9111C27.2416 32.0969 26.9544 31.3218 26.6522 30.5502C26.4922 30.1395 26.4664 30.1235 26.0256 30.1209H22.7118C21.1909 30.1209 19.6664 30.1271 18.1456 30.1244C17.9669 30.1244 17.8771 30.2017 17.8184 30.3591C17.6762 30.7502 17.5038 31.1333 17.3864 31.5324C17.2327 32.0658 17.1091 32.6124 16.9953 33.1555C16.9482 33.3751 17.0193 33.4275 17.2442 33.44C17.3278 33.4453 17.4113 33.44 17.4949 33.44L22.2184 33.4391ZM22.2184 35.5324H17.0718C16.7571 35.5324 16.7322 35.5573 16.6984 35.8782C16.6647 36.1964 16.6496 36.5173 16.606 36.8346C16.5624 37.1591 16.5536 37.1618 16.8593 37.288C16.8949 37.3046 16.9307 37.3194 16.9669 37.3324C18.4389 37.832 19.9509 38.1315 21.5056 38.184C22.6032 38.227 23.7024 38.1651 24.7882 37.9991C25.7784 37.8409 26.7438 37.5946 27.6887 37.2489C27.846 37.1929 27.886 37.1093 27.8611 36.9431C27.8087 36.5946 27.7784 36.2426 27.7473 35.8942C27.7198 35.5662 27.6976 35.5324 27.3651 35.5324H22.2184ZM22.2024 8.90486V8.89864H27.4042C27.6513 8.89864 27.7064 8.84353 27.7313 8.59997C27.7722 8.24175 27.7962 7.88353 27.8522 7.52797C27.886 7.31819 27.8087 7.23197 27.6238 7.16353C26.5626 6.77741 25.4615 6.51145 24.3411 6.37064C22.558 6.15464 20.7767 6.17331 19.0158 6.56531C18.2656 6.73242 17.5349 6.97242 16.7936 7.17953C16.6211 7.2293 16.5473 7.31553 16.5847 7.51642C16.6433 7.82486 16.6584 8.13953 16.6896 8.45153C16.7322 8.89864 16.7322 8.90219 17.1864 8.90219H22.1962L22.2024 8.90486ZM19.2042 16.5022C19.2256 16.5546 19.2282 16.5822 19.2442 16.6C19.9784 17.5049 20.814 18.2924 21.7953 18.9253C22.0353 19.0791 22.2247 19.0853 22.4593 18.9404C23.4096 18.3475 24.2611 17.6444 24.9553 16.7582C25.0104 16.6835 25.0629 16.6071 25.1402 16.4986C24.9767 16.4711 24.8531 16.4311 24.7269 16.4311C23.0048 16.4299 21.2842 16.432 19.5651 16.4373C19.4478 16.4373 19.334 16.4773 19.2042 16.4995V16.5022ZM25.1002 27.9573C25.0469 27.8613 25.0353 27.8302 25.0167 27.8062C24.3011 26.8613 23.3936 26.1324 22.4033 25.5004C22.3598 25.472 22.3144 25.4355 22.2673 25.432C22.1598 25.4293 22.03 25.4071 21.95 25.4569C21.0304 26.0117 20.2114 26.7183 19.5278 27.5466C19.4389 27.6577 19.3553 27.7777 19.2504 27.92C19.3704 27.9537 19.4478 27.9884 19.5251 27.9911C19.8336 28.0035 20.1384 28.0089 20.4469 28.0089C21.8078 28.0124 23.1687 28.0186 24.5296 28.016C24.7073 28.016 24.8869 27.976 25.1029 27.9475L25.1002 27.9573Z" fill="#177580"/>
</g>
</g>
<defs>
<clipPath id="clip0_6706_3387">
<rect width="200" height="44.4444" fill="white"/>
</clipPath>
</defs>
</svg>
