<?xml version="1.0" encoding="UTF-8"?><svg id="Page1" xmlns="http://www.w3.org/2000/svg" viewBox="0 0 1363.83 517.63"><defs><style>.cls-1{fill:#3ac187;}.cls-1,.cls-2{stroke-width:0px;}.cls-2{fill:#404370;}</style></defs><g id="Logo"><circle class="cls-1" cx="148.12" cy="148.12" r="38.39"/><circle class="cls-1" cx="148.12" cy="76.29" r="12.25"/><circle class="cls-1" cx="148.12" cy="19.03" r="19.03"/><circle class="cls-1" cx="97.33" cy="97.33" r="12.25"/><circle class="cls-1" cx="56.84" cy="56.84" r="19.03"/><circle class="cls-1" cx="76.29" cy="148.12" r="12.25"/><circle class="cls-1" cx="19.03" cy="148.12" r="19.03"/><g id="Impact"><path class="cls-1" d="m90.22,426.84l13.07-6.35c3.74-1.74,6.16-3.79,7.29-6.16,1.12-2.36,1.68-6.54,1.68-12.52v-118.05c0-7.22-.56-12.14-1.68-14.76-1.12-2.61-3.55-4.79-7.29-6.54l-13.07-5.6v-9.34l93.77-11.96v166.25c0,5.98.62,10.15,1.87,12.52,1.24,2.37,3.74,4.43,7.47,6.16l12.7,6.35v8.22h-115.81v-8.22Z"/><path class="cls-1" d="m216.57,426.84l13.07-6.35c3.74-1.74,6.16-3.79,7.29-6.16,1.12-2.36,1.68-6.54,1.68-12.52v-118.05c0-7.22-.56-12.14-1.68-14.76-1.12-2.61-3.55-4.79-7.29-6.54l-13.07-5.6v-9.34l93.4-11.96v38.86l-8.59-4.49c14.2-10.21,28.14-18.49,41.84-24.84,13.7-6.35,27.02-9.53,39.97-9.53,16.69,0,28.89,4.48,36.62,13.45,7.71,8.97,11.58,22.79,11.58,41.47v111.33c0,5.98.56,10.22,1.68,12.71,1.12,2.49,3.55,4.73,7.28,6.72l10.46,5.6v8.22h-110.58v-8.22l10.46-5.6c3.49-1.99,5.85-4.23,7.1-6.72,1.25-2.49,1.87-6.73,1.87-12.71v-106.1c0-8.22-1.81-14.07-5.41-17.55-3.61-3.49-9.16-5.23-16.63-5.23-3.74,0-7.97.5-12.7,1.5-4.73.99-9.59,2.12-14.57,3.36v124.03c0,5.98.62,10.22,1.87,12.71,1.24,2.49,3.61,4.73,7.1,6.72l10.46,5.6v8.22h-113.2v-8.22Zm243.96,0l10.83-5.6c3.48-1.99,5.79-4.23,6.91-6.72,1.12-2.49,1.68-6.73,1.68-12.71v-106.1c0-8.22-1.81-14.07-5.41-17.55-3.62-3.49-9.03-5.23-16.25-5.23-3.98,0-8.65.56-14.01,1.68-5.36,1.12-11.27,2.68-17.74,4.67l-2.99-11.95,7.84-4.86c13.7-8.46,26.28-15.07,37.73-19.8,11.45-4.73,23.03-7.1,34.75-7.1,16.68,0,28.82,4.48,36.42,13.45,7.6,8.97,11.4,22.79,11.4,41.47v111.33c0,5.73.69,9.85,2.06,12.33,1.37,2.49,3.92,4.62,7.66,6.35l12.7,6.35v8.22h-113.57v-8.22Z"/><path class="cls-1" d="m829.25,428.9c-9.59-7.6-14.38-18.49-14.38-32.69,0-11.45,3.55-21.6,10.65-30.45,7.1-8.84,19.49-16.87,37.17-24.1,17.68-7.22,41.97-13.7,72.85-19.43v9.72c-13.2,5.23-23.97,10.4-32.32,15.5-8.35,5.11-14.51,10.46-18.49,16.06-3.99,5.6-5.98,11.4-5.98,17.37,0,8.47,2.62,14.76,7.85,18.87,5.23,4.11,11.33,6.16,18.31,6.16,4.98,0,9.65-.8,14.01-2.43,4.36-1.62,9.03-4.3,14.01-8.03l5.61,7.84-3.74,3.74c-11.95,11.21-23.35,19.56-34.18,25.03-10.83,5.48-22.48,8.22-34.93,8.22-14.7,0-26.84-3.8-36.43-11.4Zm106.29,1.68c-7.23-5.98-10.83-14.58-10.83-25.78v-124.03c0-10.21-1.5-17.8-4.49-22.79-2.99-4.98-8.09-7.47-15.31-7.47-4.99,0-9.47,1.25-13.45,3.74-3.98,2.49-7.65,6.11-11.02,10.83-3.36,4.73-6.79,10.72-10.27,17.93l-13.08,26.9h-8.97l-26.15-58.65c22.91-5.98,40.97-10.09,54.17-12.33,13.2-2.24,25.78-3.36,37.73-3.36,28.14,0,48.81,5.48,62.01,16.44,13.2,10.96,19.8,28.9,19.8,53.8v84.06c0,7.47.56,12.51,1.68,15.13,1.12,2.61,3.67,4.8,7.66,6.54l11.21,5.98v7.85l-4.11,2.24c-6.73,3.24-14.45,6.04-23.16,8.4-8.72,2.36-17.32,3.55-25.78,3.55-11.21,0-20.42-2.99-27.64-8.96Z"/><path class="cls-1" d="m1071.24,428.52c-14.57-8.09-25.91-19.74-34-34.93-8.1-15.19-12.15-33-12.15-53.43,0-21.67,4.55-40.41,13.64-56.23,9.09-15.81,21.54-28.02,37.36-36.61,15.82-8.59,33.68-12.89,53.61-12.89,15.69,0,30.07,1.37,43.15,4.11,13.07,2.74,24.35,5.98,33.81,9.71l-32.51,69.11h-8.97l-11.58-29.51c-5.98-14.44-11.09-24.47-15.32-30.07-4.24-5.6-9.59-8.4-16.06-8.4-4.99,0-9.72,2.24-14.2,6.72-4.49,4.49-8.03,11.34-10.65,20.55-2.61,9.21-3.92,20.67-3.92,34.37,0,18.43,3.04,34.25,9.15,47.44,6.1,13.2,14.63,23.23,25.59,30.08,10.96,6.85,23.66,10.27,38.11,10.27,5.98,0,11.96-.43,17.93-1.31s11.96-2.18,17.93-3.92l4.11,8.22c-4.48,5.23-10.15,10.65-17,16.25-6.85,5.6-16.12,10.77-27.83,15.5-11.71,4.73-25.16,7.1-40.35,7.1-18.68,0-35.3-4.05-49.87-12.14Z"/><path class="cls-1" d="m1256.61,425.91c-8.97-9.84-13.45-23.47-13.45-40.91v-121.04h-23.16v-8.22l15.69-10.83c3.74-2.24,6.85-4.98,9.34-8.22,2.49-3.23,4.49-6.85,5.98-10.83l10.46-27.28,53.43-5.23v50.06l48.19-4.48v25.03h-48.19v113.94c0,7.47,1.68,12.89,5.04,16.25,3.36,3.36,8.65,5.04,15.88,5.04,4.23,0,8.53-.43,12.89-1.31,4.36-.87,7.78-1.8,10.28-2.8l4.85,8.22c-9.47,10.46-20.3,19.3-32.5,26.53-12.21,7.22-25.16,10.83-38.85,10.83-14.95,0-26.9-4.92-35.87-14.76Z"/><path class="cls-1" d="m578.31,509.41l12.7-6.35c3.98-1.74,6.54-3.8,7.66-6.16,1.12-2.37,1.68-6.54,1.68-12.52v-200.62c0-7.22-.56-12.14-1.68-14.76-1.12-2.61-3.68-4.79-7.66-6.54l-12.7-5.6v-9.34l92.65-11.96v35.49l-5.23-2.25,4.48-3.74c10.96-9.46,21.42-16.75,31.38-21.85,9.96-5.1,21.3-7.66,34-7.66s24.41,3.43,34.37,10.27c9.96,6.86,17.8,17.63,23.54,32.32,5.73,14.7,8.59,33.12,8.59,55.29s-3.61,42.85-10.83,59.03c-7.23,16.19-17.32,28.39-30.26,36.62-12.96,8.22-28.02,12.33-45.2,12.33-9.97,0-19.24-1.25-27.83-3.74-8.59-2.49-16.13-5.72-22.6-9.71l6.35-2.99v59.4c0,5.98.56,10.15,1.68,12.52,1.12,2.36,3.55,4.42,7.28,6.16l13.08,6.35v8.22h-115.45v-8.22Zm131.32-95.82c6.1-4.11,10.89-11.71,14.38-22.79,3.49-11.08,5.23-26.72,5.23-46.89,0-18.68-1.49-33.18-4.48-43.52-2.99-10.33-7.23-17.56-12.7-21.67-5.48-4.11-12.33-6.16-20.55-6.16-3.98,0-8.1.5-12.33,1.49-4.24,1-8.35,2.37-12.32,4.11l4.85-4.49v145.7l-6.72-2.99c2.99.74,6.54,1.49,10.65,2.24,4.11.74,7.9,1.12,11.4,1.12,8.97,0,16.5-2.05,22.6-6.16Z"/></g><g id="Consultants"><path class="cls-2" d="m282.99,164.53l8.01,7.91s-9.2,11.9-26.91,11.9c-20.2,0-35.51-15.5-35.51-36.21s15.31-36.21,35.51-36.21c16.8,0,25.91,11,25.91,11l-8.1,7.91s-6.3-7.71-17.81-7.71c-13.8,0-23.31,11.51-23.31,25.01s9.5,25.01,23.31,25.01c12.3,0,18.91-8.6,18.91-8.6Z"/><path class="cls-2" d="m372.02,148.12c0,20.71-15.01,36.21-35.41,36.21s-35.41-15.5-35.41-36.21,15.01-36.21,35.41-36.21,35.41,15.51,35.41,36.21Zm-12.2,0c0-13.5-9.1-24.81-23.21-24.81s-23.21,11.31-23.21,24.81,9.1,24.81,23.21,24.81,23.21-11.31,23.21-24.81Z"/><path class="cls-2" d="m398.62,113.11l35.01,48.22v-48.22h12v70.02h-10.8l-35.01-48.12v48.12h-12.01v-70.02h10.81Z"/><path class="cls-2" d="m487.65,153.93c-10.3-3.6-21.91-9.2-21.91-22.21,0-9.9,8.8-19.81,22.91-19.81s22.81,11.1,22.81,11.1l-8.3,8.21s-5.8-7.91-14.5-7.91c-6,0-10.71,3.7-10.71,8.4,0,6.1,5.5,8,15.11,11.61,10.7,4,19.61,8.8,19.61,21.5s-11.2,19.51-24.41,19.51c-17.5,0-25.61-14.3-25.61-14.3l9-7.6s6,10.5,16.6,10.5c6,0,12.2-2.4,12.2-8.11s-4.5-8-12.8-10.9Z"/><path class="cls-2" d="m571.97,113.11h12.01v44.61c0,15.41-10.5,26.61-27.01,26.61s-27.01-11.2-27.01-26.61v-44.61h12.01v43.12c0,10,5,16.7,15.01,16.7s15-6.7,15-16.7v-43.12Z"/><path class="cls-2" d="m603.77,113.11h12.01v58.62h29.81v11.41h-41.81v-70.02Z"/><path class="cls-2" d="m666.29,124.52h-19.31v-11.41h50.62v11.41h-19.31v58.62h-12.01v-58.62Z"/><path class="cls-2" d="m728.11,113.11h12.2l27.21,70.02h-12.11l-6.4-16.6h-29.61l-6.4,16.6h-12.11l27.21-70.02Zm-4.4,42.41h21.01l-10.5-27.31-10.51,27.31Z"/><path class="cls-2" d="m791.33,113.11l35.01,48.22v-48.22h12v70.02h-10.8l-35.01-48.12v48.12h-12.01v-70.02h10.81Z"/><path class="cls-2" d="m871.45,124.52h-19.31v-11.41h50.62v11.41h-19.31v58.62h-12.01v-58.62Z"/><path class="cls-2" d="m938.77,153.93c-10.3-3.6-21.91-9.2-21.91-22.21,0-9.9,8.8-19.81,22.91-19.81s22.81,11.1,22.81,11.1l-8.3,8.21s-5.8-7.91-14.5-7.91c-6,0-10.71,3.7-10.71,8.4,0,6.1,5.5,8,15.11,11.61,10.7,4,19.61,8.8,19.61,21.5s-11.2,19.51-24.41,19.51c-17.5,0-25.61-14.3-25.61-14.3l9-7.6s6,10.5,16.6,10.5c6,0,12.2-2.4,12.2-8.11s-4.5-8-12.8-10.9Z"/><path class="cls-2" d="m1027.49,141.62h27.51v11.41h-27.51v30.11h-12.01v-70.02h41.51v11.41h-29.51v17.1Z"/><path class="cls-2" d="m1140.03,148.12c0,20.71-15,36.21-35.41,36.21s-35.41-15.5-35.41-36.21,15.01-36.21,35.41-36.21,35.41,15.51,35.41,36.21Zm-12.2,0c0-13.5-9.1-24.81-23.21-24.81s-23.21,11.31-23.21,24.81,9.1,24.81,23.21,24.81,23.21-11.31,23.21-24.81Z"/><path class="cls-2" d="m1155.83,113.11h23.01c13.9,0,23.21,9,23.21,21.81,0,10.5-5.6,18.51-15.61,21l17.5,27.21h-14l-16.6-26.41h-5.5v26.41h-12.01v-70.02Zm34.01,21.81c0-6.9-4.8-10.4-12.5-10.4h-9.5v20.8h9.5c7.7,0,12.5-3.5,12.5-10.4Z"/></g></g></svg>